<?xml version="1.0" encoding="utf-8"?>
<!-- Generator: Adobe Illustrator 28.2.0, SVG Export Plug-In . SVG Version: 6.00 Build 0)  -->
<svg version="1.1" xmlns="http://www.w3.org/2000/svg" xmlns:xlink="http://www.w3.org/1999/xlink" x="0px" y="0px"
	 viewBox="0 0 841.89 368.6" style="enable-background:new 0 0 841.89 368.6;" xml:space="preserve">
<style type="text/css">
	.st0{fill:#0039C6;}
</style>
<g id="图层_2">
	<g>
		<g>
			<g>
				<path class="st0" d="M248.93,129.06c-5.91,0-10.73,4.81-10.73,10.73c0,5.91,4.81,10.73,10.73,10.73
					c5.91,0,10.73-4.81,10.73-10.73C259.66,133.87,254.85,129.06,248.93,129.06z M253.8,145.35c-3,0-5.44-2.44-5.44-5.44
					c0-3,2.44-5.44,5.44-5.44c3,0,5.44,2.44,5.44,5.44C259.24,142.91,256.8,145.35,253.8,145.35z"/>
			</g>
			<g>
				<path class="st0" d="M254.2,136.94c-1.57,0-2.85,1.28-2.85,2.85c0,1.57,1.28,2.85,2.85,2.85c1.57,0,2.85-1.28,2.85-2.85
					C257.05,138.21,255.77,136.94,254.2,136.94z"/>
			</g>
		</g>
		<g>
			<path class="st0" d="M208.68,231.25c0.17-0.19,0.04-0.49-0.22-0.5c-2.58-0.04-12.29-0.76-17.26-8.87
				c-2.87-4.67-3.34-10.48-1.21-15.56c0.15-0.36,0.31-0.71,0.48-1.06c0.04-0.09,0.04-0.19-0.01-0.27l-8.24-14.84
				c-0.07-0.13-0.22-0.17-0.36-0.14c-16.55,3.25-26.19,17.25-23.27,31.06c0.79,3.75,2.34,7.08,4.74,10.14
				c6.13,7.79,15.24,10.33,21.93,10.13C199.11,240.92,206.82,233.34,208.68,231.25z"/>
			<path class="st0" d="M132,154.09c5.91-7.11,12.74-13.01,20.39-17.65l-13.3-23.96c-0.85-1.53-2.46-2.47-4.21-2.45l-39.43,0.33
				c-1.93,0.02-3.14,2.09-2.2,3.78l29.7,53.49C126.3,161.42,129.69,156.87,132,154.09z"/>
			<path class="st0" d="M236.57,187.09c-3.46,0.07-6.76-0.08-8.56,0.22c-1.5,0.25-5.39,0.99-9.35,4.7c-0.17,0.16-0.1,0.45,0.13,0.51
				c2.7,0.71,5.19,1.94,7.61,3.41c5.17,3.14,9.88,11.04,11.34,14.76c0.09,0.24,0.42,0.26,0.54,0.03l14.1-26.81
				c0.13-0.25-0.12-0.52-0.38-0.42C245.4,186.18,239.91,187.02,236.57,187.09z"/>
			<path class="st0" d="M287.13,109.87l-37.27,0.3c-1.74,0.01-3.34,0.98-4.16,2.51l-1.03,2.21c2.98-0.07,19.89,1.25,34.09,18.93
				l10.64-20.23C290.3,111.9,289.06,109.86,287.13,109.87z"/>
			<path class="st0" d="M181.85,273.71l6.91,12.44c0.94,1.69,3.34,1.76,4.37,0.13l10.74-16.92
				C196.95,271.98,189.37,273.52,181.85,273.71z"/>
		</g>
		<path class="st0" d="M275.98,141.57c-11.98-19.96-28.93-19.62-28.93-19.62c-7.8-1.52-11.78-10.35-29.73-14.73
			c-16.78-4.1-26.14,0.92-19.42,3.7c10.84,4.49,17.02,22.38,20.19,35.86c4.05,17.22,12.86,17.54,22.61,16.49
			c7.58-0.81,22.75-8.68,30.51-10.3C279.68,151.2,282.32,152.14,275.98,141.57z M248.33,154.19c-7.95,0-14.4-6.45-14.4-14.4
			c0-7.95,6.45-14.4,14.4-14.4c7.95,0,14.4,6.45,14.4,14.4C262.73,147.74,256.28,154.19,248.33,154.19z"/>
		<path class="st0" d="M227.8,229.49"/>
		<g>
			<path class="st0" d="M197.52,207.04c-2.14,5.11,0.26,12.88,10.79,13.58c0.65,0,0.98-0.44,0.98-0.98c0-0.54-0.47-0.8-0.98-0.98
				c-0.51-0.18-5.36-1.85-4.3-7.53c0.35-1.89,2.04-3.59,4.11-4.37c-1.17-2.17-1.18-5.1,0.48-7.91
				C205.79,198.84,200.28,200.43,197.52,207.04z"/>
			<path class="st0" d="M230.96,217.37c0-5.61-3.7-11.56-6.6-13.45c-2.52-0.87-6.69,0.5-9.04,4c2.76,1.8,4.53,4.69,4.83,12.13
				c0.38,9.63-6.91,17.91-16.68,22.63C217.93,239.9,230.96,228,230.96,217.37z"/>
			<path class="st0" d="M143.77,233.5c-27.87-35.61-11.16-83.24,29.46-99.36c-50.57,17.04-65.67,72.87-37.27,107.96
				c18.85,23.29,51.28,24.08,68.65,18.04C183.53,258.39,160.91,255.4,143.77,233.5z"/>
		</g>
		<path class="st0" d="M216.65,183.11c0.24-0.1,0.24-0.44,0-0.55c-0.49-0.23-1.44-0.41-3.18,0.03c-3.37,0.84-11.64,2.17-10.99-1.85
			c0.46-2.86,5.04-3.77,8.39-9.25c1.66-2.71-0.48-7.17-4.83-7.17c-3.35,0-6.79,1.52-10.54,5.49c-5.24,5.54-6.28,10.74-4.25,14.56
			c1.92,3.63,6.43,5.19,13.96,3.94C210.35,187.47,211.93,185.19,216.65,183.11z"/>
		<path class="st0" d="M213.33,198.84c0,0-4.04,1.45-3.58,7.66c1.5-0.38,1.96-0.23,4,0.75c0.94-2.77,3.34-5.1,6.89-5.1
			c0.64,0,1.27,0.07,1.89,0.19C220.14,200.56,217.67,199.06,213.33,198.84z"/>
		<path class="st0" d="M242.58,175.96c-20.04,4.22-20.33-12.96-35.09-16.28c-19.87-4.46-45.31,7.42-56.48,29.07
			c-4.54,8.8-8.82,26.05,2.32,40.74c-7-19.04,3.56-33.05,10.37-38.54c6.41-5.16,14.25-8.42,21.99-10.39
			c0.13-0.03,0.22-0.15,0.22-0.28c0.13-4.18,2.26-8.65,6.29-12.91c4.27-4.52,8.65-6.71,13.37-6.71c3.46,0,6.5,1.76,8.15,4.7
			c1.52,2.71,1.52,5.94,0.01,8.41c-0.9,1.47-1.87,2.67-2.83,3.66c-0.18,0.18-0.05,0.49,0.2,0.5c9.28,0.58,16.91,2.84,23.72,2.32
			c25.69-1.96,34.84-15.65,38.14-18.17C275.97,159.82,253.41,173.68,242.58,175.96z"/>
		<path class="st0" d="M217.22,232.36c-7.51,7.51-19.81,18.1-43.6,13.65c-17.26-3.23-30.49-27.15-26.64-56.01
			c2.06-15.44,14.03-29.84,25.26-34.49c24.56-10.16,37.47,0.67,43.44,7.36c4.23,4.74,9.07,14.53,24.71,14.4
			c11.94-0.1,32.62-14.15,38.36-19.45c1.96-1.81-0.18-2.81-3.43-2.52c-12.41,1.11-23.91,14.36-40.8,13.64
			c-8.34-0.35-18.84-6.08-22.54-18.44c-4.45-14.86-4.54-17.96-9.65-18.84c-5.35-0.92-13.51-1.42-25.31,2.26
			c-15.27,4.78-39.22,28.17-40.75,56.07c-2.65,48.25,18.91,67.59,52.15,71.69c3.76,0.46,11.99-0.54,15.65-1.33
			c5.13-2.19,9.52-4.96,12.83-7.93c8.29-7.44,13.33-15.72,14.52-27.68c0.4-4.01-0.57-9.34-1.11-11.68
			C230.12,215.57,225.21,224.37,217.22,232.36z"/>
	</g>
	<g>
		<g>
			<path class="st0" d="M313.84,231.39c-5.58-3.09-9.92-7.49-13.01-13.18c-3.09-5.69-4.64-12.28-4.64-19.76V166.1
				c0-7.39,1.54-13.9,4.64-19.54c3.09-5.64,7.43-10.01,13.01-13.1c5.58-3.09,12.06-4.64,19.45-4.64c7.38,0,13.86,1.47,19.45,4.42
				c5.58,2.95,9.92,7.09,13.01,12.43c3.09,5.34,4.64,11.51,4.64,18.49c0,0.5-0.16,0.9-0.48,1.2c-0.32,0.3-0.72,0.45-1.18,0.45
				l-19.65,1.35c-1.11,0-1.66-0.55-1.66-1.65c0-4.69-1.29-8.43-3.88-11.23c-2.58-2.79-6-4.19-10.24-4.19
				c-4.25,0-7.66,1.42-10.24,4.27c-2.58,2.85-3.88,6.56-3.88,11.16v33.99c0,4.59,1.29,8.29,3.88,11.08c2.58,2.8,6,4.19,10.24,4.19
				c4.24,0,7.66-1.4,10.24-4.19c2.58-2.79,3.88-6.49,3.88-11.08c0-1.1,0.55-1.65,1.66-1.65l19.65,1.05c0.46,0,0.85,0.15,1.18,0.45
				c0.32,0.3,0.48,0.65,0.48,1.05c0,7.09-1.55,13.33-4.64,18.72c-3.09,5.39-7.43,9.56-13.01,12.5c-5.58,2.95-12.07,4.42-19.45,4.42
				C325.9,236.03,319.42,234.48,313.84,231.39z"/>
			<path class="st0" d="M388.23,228.84c-5.81-4.79-9.69-11.28-11.63-19.47c-1.11-4.09-1.66-8.58-1.66-13.48
				c0-5.49,0.6-10.33,1.8-14.52c2.12-7.88,6.07-14.05,11.83-18.49c5.77-4.44,12.76-6.66,20.97-6.66c8.12,0,14.99,2.22,20.62,6.66
				c5.63,4.44,9.55,10.56,11.76,18.34c1.29,4.49,1.94,9.28,1.94,14.37c0,4.59-0.51,8.98-1.52,13.18
				c-1.94,8.39-5.81,15.02-11.63,19.92c-5.81,4.89-12.92,7.34-21.32,7.34C401.11,236.03,394.05,233.63,388.23,228.84z
				 M416.05,211.99c1.75-1.85,3.05-4.37,3.88-7.56c0.55-2.6,0.83-5.44,0.83-8.54c0-2.99-0.32-5.89-0.97-8.68
				c-0.74-3.09-1.99-5.49-3.74-7.19c-1.75-1.7-3.97-2.55-6.64-2.55c-5.35,0-8.86,3.24-10.52,9.73c-0.55,2.4-0.83,5.29-0.83,8.68
				c0,3.1,0.28,5.94,0.83,8.54c0.74,3.2,2.01,5.72,3.81,7.56c1.8,1.85,4.04,2.77,6.71,2.77
				C412.09,214.76,414.3,213.84,416.05,211.99z"/>
			<path class="st0" d="M493.63,157.94c0.32-0.35,0.71-0.52,1.18-0.52h19.65c0.46,0,0.85,0.18,1.18,0.52
				c0.32,0.35,0.48,0.77,0.48,1.27v66.93c0,13.68-3.65,23.46-10.93,29.35c-7.29,5.89-16.52,8.83-27.68,8.83
				c-4.15,0-8.54-0.4-13.15-1.2c-0.92-0.1-1.38-0.75-1.38-1.95l0.69-18.57c0-0.7,0.18-1.17,0.55-1.42c0.37-0.25,0.83-0.28,1.38-0.07
				c3.78,0.9,7.29,1.35,10.52,1.35c5.26,0,9.41-1.3,12.46-3.89c3.04-2.6,4.57-6.69,4.57-12.28l-0.97,1.05
				c-3.32,3.59-8.12,5.39-14.4,5.39c-6.09,0-11.67-1.45-16.75-4.34c-5.08-2.89-8.72-7.99-10.93-15.27
				c-1.48-4.79-2.21-10.68-2.21-17.67c0-7.69,0.88-13.97,2.63-18.87c2.12-6.19,5.51-11.13,10.17-14.82
				c4.66-3.69,10.08-5.54,16.26-5.54c6.64,0,11.76,2.2,15.36,6.59c0.18,0.2,0.37,0.28,0.55,0.22c0.18-0.05,0.28-0.22,0.28-0.52
				v-3.29C493.15,158.72,493.31,158.29,493.63,157.94z M493.15,195.3c0-2.7-0.09-4.82-0.28-6.36c-0.19-1.55-0.55-3.02-1.11-4.42
				c-0.74-2.19-1.92-3.92-3.53-5.17c-1.62-1.25-3.58-1.87-5.88-1.87c-4.34,0-7.43,2.35-9.27,7.04c-1.38,2.8-2.08,6.49-2.08,11.08
				c0,4.89,0.6,8.49,1.8,10.78c0.83,2.1,2.08,3.79,3.74,5.09c1.66,1.3,3.64,1.95,5.95,1.95c4.71,0,7.84-2.29,9.41-6.89
				C492.73,204.23,493.15,200.49,493.15,195.3z"/>
			<path class="st0" d="M549.07,233.33l-27.96-101.22l-0.14-0.6c0-1,0.51-1.5,1.52-1.5h21.18c1.01,0,1.66,0.5,1.94,1.5l15.92,68.13
				c0.09,0.3,0.23,0.45,0.41,0.45c0.18,0,0.32-0.15,0.42-0.45l15.64-68.13c0.28-1,0.92-1.5,1.94-1.5h20.76c0.55,0,0.97,0.2,1.25,0.6
				c0.28,0.4,0.32,0.9,0.14,1.5L573.7,233.33c-0.28,1-0.88,1.5-1.8,1.5h-21.04C549.94,234.83,549.34,234.33,549.07,233.33z"/>
			<path class="st0" d="M608.51,234.3c-0.32-0.35-0.48-0.77-0.48-1.27V131.81c0-0.5,0.16-0.92,0.48-1.27
				c0.32-0.35,0.71-0.52,1.18-0.52h19.65c0.46,0,0.85,0.18,1.18,0.52c0.32,0.35,0.48,0.77,0.48,1.27v81.01
				c0,0.5,0.23,0.75,0.69,0.75h44.15c0.46,0,0.85,0.18,1.18,0.52c0.32,0.35,0.48,0.77,0.48,1.27v17.67c0,0.5-0.16,0.92-0.48,1.27
				c-0.32,0.35-0.72,0.52-1.18,0.52h-66.16C609.23,234.83,608.83,234.66,608.51,234.3z"/>
			<path class="st0" d="M747.27,130.02h19.52c0.46,0,0.85,0.18,1.18,0.52c0.32,0.35,0.48,0.77,0.48,1.27v101.22
				c0,0.5-0.16,0.92-0.48,1.27c-0.32,0.35-0.72,0.52-1.18,0.52h-19.65c-0.46,0-0.85-0.17-1.18-0.52c-0.32-0.35-0.48-0.77-0.48-1.27
				v-60.19c0-0.4-0.09-0.6-0.28-0.6c-0.19,0-0.37,0.15-0.55,0.45l-11.9,20.66c-0.37,0.8-1.02,1.2-1.94,1.2h-9.83
				c-0.92,0-1.57-0.4-1.94-1.2l-12.04-20.81c-0.19-0.3-0.37-0.45-0.55-0.45c-0.19,0-0.28,0.2-0.28,0.6v60.34
				c0,0.5-0.16,0.92-0.48,1.27c-0.32,0.35-0.72,0.52-1.18,0.52h-19.65c-0.46,0-0.85-0.17-1.18-0.52c-0.32-0.35-0.48-0.77-0.48-1.27
				V131.81c0-0.5,0.16-0.92,0.48-1.27c0.32-0.35,0.71-0.52,1.18-0.52h19.52c0.83,0,1.47,0.4,1.94,1.2l19.24,32.64
				c0.28,0.6,0.55,0.6,0.83,0l18.96-32.64C745.7,130.42,746.34,130.02,747.27,130.02z"/>
		</g>
	</g>
</g>
<g id="图层_1">
</g>
</svg>
